<?xml version="1.0" encoding="utf-8"?>
<!-- Svg Vector Icons : http://www.onlinewebfonts.com/icon -->
<!DOCTYPE svg PUBLIC "-//W3C//DTD SVG 1.1//EN" "http://www.w3.org/Graphics/SVG/1.1/DTD/svg11.dtd">
<svg version="1.1" xmlns="http://www.w3.org/2000/svg" xmlns:xlink="http://www.w3.org/1999/xlink" x="0px" y="0px" viewBox="0 0 1000 1000" enable-background="new 0 0 1000 1000" xml:space="preserve">
<metadata> Svg Vector Icons : http://www.onlinewebfonts.com/icon </metadata>
<g><g transform="translate(0.000000,511.000000) scale(0.100000,-0.100000)"><path d="M2921.8,2367.6C2230,2295.3,1442.5,1961.2,774.2,1459c-263.8-199.3-549.1-488.5-621.4-633.1L100,718.3v-918.4v-920.4l318.5-89.9c215-60.6,320.5-84,328.3-68.4c7.8,11.7,17.6,76.2,23.4,142.7c25.4,252.1,191.5,560.8,400.6,748.4c129,115.3,369.3,240.4,551.1,285.3c185.6,46.9,512,29.3,687.9-35.2c463.1-173.9,785.6-576.5,832.5-1039.6l13.7-138.7h1748.9h1749l13.7,130.9C6814.4-712.1,7131-313.4,7600-137.6c175.9,64.5,502.2,82.1,687.9,35.2c277.5-70.3,531.5-228.6,691.8-435.8c152.4-193.5,265.8-478.8,265.8-666.4c0-45,5.9-84,15.6-87.9c7.8-5.9,154.4,31.3,326.3,82.1l312.7,89.9v599.9v598l-58.6,86c-261.9,371.3-1231.1,730.8-2391.9,887.2l-244.3,33.2L7045,1222.5c-510,447.5-1106.1,852-1502.7,1022c-326.3,140.7-349.8,142.7-1475.4,140.7C3513.9,2383.3,2998,2375.4,2921.8,2367.6z M3695.6,1386.7V990l-1201.8,41c-660.5,21.5-1205.7,44.9-1211.6,48.9c-11.7,13.7,312.7,209.1,527.6,318.5c336.1,173.9,764.1,316.6,1074.8,361.5c64.5,9.8,273.6,17.6,465.1,19.5l345.9,2V1386.7z M5186.6,1744.3c252.1-87.9,711.3-367.4,1104.1-676.1L6492,911.8l-123.1-5.9c-68.4-3.9-500.3,7.8-963.4,23.4c-461.2,17.6-898.9,31.3-971.2,31.3h-132.9V1371v410.4h386.9C5022.5,1781.4,5092.8,1775.5,5186.6,1744.3z"/><path d="M1809.9-493.2C1589.1-546,1413.2-671.1,1292-860.6c-349.8-539.3,11.7-1260.4,652.7-1299.5c664.4-43,1111.9,633.1,811,1229.2C2581.8-589,2181.2-403.3,1809.9-493.2z"/><path d="M7809.1-493.2c-429.9-107.5-713.3-533.5-640.9-961.4c115.3-672.2,926.2-943.8,1418.7-478.8c498.3,472.9,261.9,1303.4-412.3,1446.1C8045.5-460,7934.1-462,7809.1-493.2z"/></g></g>
</svg>